<svg xmlns="http://www.w3.org/2000/svg" viewBox="0 0 400 400"><defs><style>.a{fill:#26273a;}</style></defs><path class="a" d="M160.32,298.94a3.57,3.57,0,0,0,.37-1.59,3.15,3.15,0,0,0-.25-1.23,3.58,3.58,0,0,0-.68-1.09,3.32,3.32,0,0,0-1-.77,3,3,0,0,0-1.33-.3h-4.48v9.78h2.68v-3h1l1.72,3h3l-2.07-3.59a3.38,3.38,0,0,0,1-1.21m-2.57-.82a.61.61,0,0,1-.46.27h-1.7V296.3h1.63a.68.68,0,0,1,.49.27,1.09,1.09,0,0,1,.25.78,1.24,1.24,0,0,1-.21.77"/><polygon class="a" points="167.09 299.86 170.65 299.86 170.65 297.68 167.09 297.68 167.09 296.3 171.26 296.3 171.26 293.96 164.41 293.96 164.41 303.74 171.38 303.74 171.38 301.4 167.09 301.4 167.09 299.86"/><path class="a" d="M180.72,300.8a1.72,1.72,0,0,1-.48.37,1.9,1.9,0,0,1-.56.21,2.74,2.74,0,0,1-.56.06,2.06,2.06,0,0,1-.94-.21,2.23,2.23,0,0,1-.71-.57,2.66,2.66,0,0,1-.45-.83,3.19,3.19,0,0,1-.15-1,3.71,3.71,0,0,1,.13-.92,2.84,2.84,0,0,1,.4-.82,2,2,0,0,1,.69-.59,2,2,0,0,1,1-.23,3.77,3.77,0,0,1,.57,0,2.1,2.1,0,0,1,.58.2,1.75,1.75,0,0,1,.5.37,1.64,1.64,0,0,1,.36.59l2.06-1.46a3.85,3.85,0,0,0-1.55-1.55,5,5,0,0,0-2.46-.58,4.86,4.86,0,0,0-3.68,1.54,4.92,4.92,0,0,0-1,1.56,4.86,4.86,0,0,0-.33,1.76,5.13,5.13,0,0,0,.35,1.84,5.21,5.21,0,0,0,1,1.63,4.94,4.94,0,0,0,1.55,1.15,4.56,4.56,0,0,0,2,.43,5.72,5.72,0,0,0,1.28-.15,5.54,5.54,0,0,0,1.22-.44,3.75,3.75,0,0,0,1-.72,2.61,2.61,0,0,0,.67-1l-2.19-1.31a1.5,1.5,0,0,1-.34.56"/><path class="a" d="M192.41,299a4.56,4.56,0,0,1-.09.92,2.5,2.5,0,0,1-.31.78,1.52,1.52,0,0,1-.53.54,1.47,1.47,0,0,1-.8.21,1.49,1.49,0,0,1-.79-.2,1.55,1.55,0,0,1-.54-.54,2.76,2.76,0,0,1-.3-.78A4.73,4.73,0,0,1,189,299v-5h-2.69v5a6.56,6.56,0,0,0,.25,1.85,4.15,4.15,0,0,0,.78,1.54,3.89,3.89,0,0,0,1.37,1.05,5.38,5.38,0,0,0,4,0,3.77,3.77,0,0,0,1.38-1,4.18,4.18,0,0,0,.82-1.53,6.94,6.94,0,0,0,.26-1.91v-5h-2.69Z"/><path class="a" d="M206.26,298.94a3.44,3.44,0,0,0,.37-1.59,3.15,3.15,0,0,0-.25-1.23,3.4,3.4,0,0,0-.68-1.09,3.32,3.32,0,0,0-1-.77,2.94,2.94,0,0,0-1.32-.3h-4.49v9.78h2.68v-3h1l1.72,3h3l-2.06-3.59a3.35,3.35,0,0,0,1-1.21m-2.57-.82a.6.6,0,0,1-.46.27h-1.7V296.3h1.63a.72.72,0,0,1,.5.27,1.14,1.14,0,0,1,.24.78,1.24,1.24,0,0,1-.21.77"/><path class="a" d="M216.87,298.76a3.75,3.75,0,0,0-.94-.58,9.3,9.3,0,0,0-1.21-.46l-.77-.23c-.22-.07-.41-.13-.57-.2a1.18,1.18,0,0,1-.36-.23.44.44,0,0,1-.12-.32.38.38,0,0,1,.21-.37,1.28,1.28,0,0,1,.57-.11,2.83,2.83,0,0,1,.9.15,6.76,6.76,0,0,1,.84.31,5.71,5.71,0,0,1,.85.44l1.16-2.22-.74-.35c-.28-.13-.58-.24-.89-.35s-.65-.19-1-.26a5.16,5.16,0,0,0-1-.1,4.54,4.54,0,0,0-1.39.21,3.43,3.43,0,0,0-1.16.63,3,3,0,0,0-.81,1,3.23,3.23,0,0,0-.29,1.43,2.75,2.75,0,0,0,.14.95,2.08,2.08,0,0,0,.45.74,2.93,2.93,0,0,0,.77.58,6.5,6.5,0,0,0,1.11.47c.3.11.58.19.84.27a6.28,6.28,0,0,1,.69.22,1.64,1.64,0,0,1,.48.25.47.47,0,0,1,.17.35.36.36,0,0,1-.17.31,1.14,1.14,0,0,1-.61.12,4,4,0,0,1-1.14-.16,6.75,6.75,0,0,1-1-.38,8.11,8.11,0,0,1-1-.53l-1.15,2.35a6.12,6.12,0,0,0,1,.47,9.32,9.32,0,0,0,2.19.59,7.09,7.09,0,0,0,1.1.09,6.22,6.22,0,0,0,1.35-.16,3.8,3.8,0,0,0,1.2-.52,2.73,2.73,0,0,0,.85-1,3,3,0,0,0,.32-1.48,3.11,3.11,0,0,0-.2-1.17,2.42,2.42,0,0,0-.59-.82"/><rect class="a" x="221.05" y="293.96" width="2.69" height="9.78"/><path class="a" d="M235.67,295.46a5,5,0,0,0-1.56-1.13,4.74,4.74,0,0,0-2-.42,4.91,4.91,0,0,0-2,.4,5.06,5.06,0,0,0-1.58,1.09,4.83,4.83,0,0,0-1,1.58,4.71,4.71,0,0,0-.37,1.86,4.85,4.85,0,0,0,.35,1.84,5.07,5.07,0,0,0,1,1.59A5,5,0,0,0,230,303.4a5.1,5.1,0,0,0,4,0,5,5,0,0,0,1.57-1.1,5,5,0,0,0,1-1.57,4.89,4.89,0,0,0,.37-1.85,5.08,5.08,0,0,0-.35-1.83,5.2,5.2,0,0,0-1-1.6m-1.51,4.33a2.56,2.56,0,0,1-.4.83,2,2,0,0,1-.7.59,2.11,2.11,0,0,1-1,.23,2.08,2.08,0,0,1-1-.22,2.2,2.2,0,0,1-.7-.58,2.53,2.53,0,0,1-.41-.82,3.43,3.43,0,0,1-.14-1,3.74,3.74,0,0,1,.13-.94,2.68,2.68,0,0,1,.41-.83,2.05,2.05,0,0,1,1.69-.8,2.19,2.19,0,0,1,1,.21,2,2,0,0,1,.7.57,2.23,2.23,0,0,1,.42.81,3.45,3.45,0,0,1,0,1.91"/><polygon class="a" points="246.38 298.93 242.46 293.96 240.37 293.96 240.37 303.74 243.05 303.74 243.05 298.93 246.94 303.74 249.07 303.74 249.07 293.96 246.38 293.96 246.38 298.93"/><polygon class="a" points="263.58 173.8 266.4 173.8 266.4 181.24 269.09 181.24 269.09 173.8 271.9 173.8 271.9 171.46 263.58 171.46 263.58 173.8"/><polygon class="a" points="278.81 175.69 277.06 171.46 274.16 171.46 277.48 177.98 277.48 181.24 280.15 181.24 280.15 178 283.52 171.46 280.6 171.46 278.81 175.69"/><path class="a" d="M293,172.53a3.32,3.32,0,0,0-1-.77,3,3,0,0,0-1.33-.3h-4.21v9.78h2.68v-3h1.6a3.18,3.18,0,0,0,1.32-.28,3.1,3.1,0,0,0,1-.76,3.63,3.63,0,0,0,.65-1.09,3.44,3.44,0,0,0,.24-1.26,3.38,3.38,0,0,0-.25-1.23,3.71,3.71,0,0,0-.68-1.09m-2,3.14a.62.62,0,0,1-.46.23h-1.42v-2.1h1.35a.77.77,0,0,1,.5.22,1.13,1.13,0,0,1,.25.83,1.17,1.17,0,0,1-.22.82"/><polygon class="a" points="299.93 177.36 303.49 177.36 303.49 175.18 299.93 175.18 299.93 173.8 304.09 173.8 304.09 171.46 297.24 171.46 297.24 181.24 304.21 181.24 304.21 178.9 299.93 178.9 299.93 177.36"/><path class="a" d="M314.19,176.26a3.87,3.87,0,0,0-.93-.58,9.47,9.47,0,0,0-1.22-.46l-.76-.23a5.47,5.47,0,0,1-.58-.2,1.25,1.25,0,0,1-.35-.23.41.41,0,0,1-.13-.32.39.39,0,0,1,.21-.37,1.36,1.36,0,0,1,.58-.11,2.93,2.93,0,0,1,.9.15,6.58,6.58,0,0,1,.83.31,5.81,5.81,0,0,1,.86.44l1.15-2.22c-.22-.11-.46-.23-.74-.35a8.26,8.26,0,0,0-.89-.35,10,10,0,0,0-1-.26,5.19,5.19,0,0,0-1.05-.1,4.43,4.43,0,0,0-1.38.21,3.48,3.48,0,0,0-1.17.63,2.81,2.81,0,0,0-.8,1,3.23,3.23,0,0,0-.3,1.43,3,3,0,0,0,.14.95,2.08,2.08,0,0,0,.45.74,2.93,2.93,0,0,0,.77.58,8,8,0,0,0,1.12.48l.83.26a6.5,6.5,0,0,1,.7.22,1.57,1.57,0,0,1,.47.25.44.44,0,0,1,.17.35.34.34,0,0,1-.17.31,1.12,1.12,0,0,1-.61.12,4,4,0,0,1-1.14-.16,7.21,7.21,0,0,1-1-.38,8,8,0,0,1-1-.53L307,180.22a7.13,7.13,0,0,0,1,.47,9,9,0,0,0,1.07.36,9.06,9.06,0,0,0,1.13.23,6.89,6.89,0,0,0,1.1.09,6.06,6.06,0,0,0,1.34-.16,3.61,3.61,0,0,0,1.2-.52,2.64,2.64,0,0,0,.85-1,3,3,0,0,0,.33-1.48,2.91,2.91,0,0,0-.21-1.17,2.3,2.3,0,0,0-.59-.82"/><polygon class="a" points="84.01 177.87 82.09 171.46 79.26 171.46 82.89 181.24 85.13 181.24 88.72 171.46 85.9 171.46 84.01 177.87"/><path class="a" d="M93.41,171.46,90,181.24h2.75l.57-1.91h2.61l.59,1.91h2.73l-3.39-9.78Zm.31,6.08.91-3,.87,3Z"/><polygon class="a" points="104.95 171.46 102.26 171.46 102.26 181.24 109.39 181.24 109.39 178.9 104.95 178.9 104.95 171.46"/><path class="a" d="M118.38,176.49a3.93,3.93,0,0,1-.1.92,2.27,2.27,0,0,1-.3.78,1.64,1.64,0,0,1-.54.54,1.44,1.44,0,0,1-.8.21,1.52,1.52,0,0,1-.79-.2,1.61,1.61,0,0,1-.53-.54,2.27,2.27,0,0,1-.3-.78,4.08,4.08,0,0,1-.1-.93v-5h-2.68v5a7,7,0,0,0,.24,1.85,4.33,4.33,0,0,0,.79,1.54,3.8,3.8,0,0,0,1.37,1.05,4.69,4.69,0,0,0,2,.39,4.78,4.78,0,0,0,2-.37,4,4,0,0,0,1.38-1,4,4,0,0,0,.81-1.53,6.58,6.58,0,0,0,.27-1.91v-5h-2.69Z"/><polygon class="a" points="127.5 177.36 131.05 177.36 131.05 175.18 127.5 175.18 127.5 173.8 131.66 173.8 131.66 171.46 124.81 171.46 124.81 181.24 131.78 181.24 131.78 178.9 127.5 178.9 127.5 177.36"/><path class="a" d="M141.76,176.26a3.87,3.87,0,0,0-.93-.58,10.06,10.06,0,0,0-1.22-.46l-.77-.23c-.22-.07-.41-.13-.57-.2a1.18,1.18,0,0,1-.36-.23.44.44,0,0,1-.12-.32.39.39,0,0,1,.21-.37,1.28,1.28,0,0,1,.57-.11,2.94,2.94,0,0,1,.91.15,7.22,7.22,0,0,1,.83.31,5.71,5.71,0,0,1,.85.44l1.16-2.22-.74-.35a9.17,9.17,0,0,0-.89-.35c-.32-.1-.65-.19-1-.26a5.16,5.16,0,0,0-1-.1,4.54,4.54,0,0,0-1.39.21,3.53,3.53,0,0,0-1.16.63,3,3,0,0,0-.81,1,3.23,3.23,0,0,0-.29,1.43,2.75,2.75,0,0,0,.14.95,2.08,2.08,0,0,0,.45.74,2.93,2.93,0,0,0,.77.58,7.09,7.09,0,0,0,1.12.48l.83.26a6.28,6.28,0,0,1,.69.22,1.64,1.64,0,0,1,.48.25.47.47,0,0,1,.17.35.36.36,0,0,1-.17.31,1.14,1.14,0,0,1-.61.12,4,4,0,0,1-1.14-.16,7.21,7.21,0,0,1-1-.38,7.34,7.34,0,0,1-1-.53l-1.16,2.35a6.12,6.12,0,0,0,1,.47,9.32,9.32,0,0,0,2.19.59,7.11,7.11,0,0,0,1.11.09,6.13,6.13,0,0,0,1.34-.16,3.8,3.8,0,0,0,1.2-.52,2.64,2.64,0,0,0,.85-1,3,3,0,0,0,.32-1.48,2.92,2.92,0,0,0-.2-1.17,2.42,2.42,0,0,0-.59-.82"/><path class="a" d="M327.55,158.87H288.31a98.31,98.31,0,0,0-68.84-52.08l-17.31-30a1.8,1.8,0,0,0-1.56-.9,1.82,1.82,0,0,0-1.57.9l-17.31,30a98.31,98.31,0,0,0-68.84,52.08H73.2a8,8,0,0,0-8,8v19a8,8,0,0,0,8,8h29.52c-.31,3.16-.48,6.35-.48,9.58a98.25,98.25,0,0,0,5.32,31.92L90.39,265a1.81,1.81,0,0,0,0,1.8,1.84,1.84,0,0,0,1.57.91h34.3a98.66,98.66,0,0,0,14.79,13.85,9.51,9.51,0,0,0-5.8,8.75v16.33a9.49,9.49,0,0,0,9.49,9.49H256.45a9.49,9.49,0,0,0,9.49-9.49V290.29a9.51,9.51,0,0,0-5.8-8.75,98.66,98.66,0,0,0,14.79-13.85h34.3A1.81,1.81,0,0,0,310.8,265l-17.17-29.74A98.25,98.25,0,0,0,299,203.32c0-3.23-.17-6.42-.48-9.58h29.08a8,8,0,0,0,8-8v-19A8,8,0,0,0,327.55,158.87ZM221.77,110.81a.33.33,0,0,1,.26-.13h.07a95.36,95.36,0,0,1,62.59,48.18H251.22a8,8,0,0,0-1.91.26l-26.59-46c-.32-.69-.63-1.31-1-1.91A.34.34,0,0,1,221.77,110.81Zm29.45,82.93h9a60.9,60.9,0,0,1-1.52,26.1.35.35,0,0,1-.28.23h0a.33.33,0,0,1-.28-.16L215,145.24a.36.36,0,0,1,0-.36.35.35,0,0,1,.26-.13h.08a60.33,60.33,0,0,1,28,15.86c.51.51,1,1,1.49,1.56a7.9,7.9,0,0,0-1.53,4.65v19A8,8,0,0,0,251.22,193.74Zm20.42,49.61-7-12.16a.3.3,0,0,1,0-.26.35.35,0,0,1,.18-.2,13.59,13.59,0,1,1-8,15.22.34.34,0,0,1,.07-.27.35.35,0,0,1,.25-.12h13.31a1.48,1.48,0,0,0,1.28-.73A1.5,1.5,0,0,0,271.64,243.35Zm-4.11-1.22a.32.32,0,0,1,0,.33.33.33,0,0,1-.28.16H255a.33.33,0,0,1-.33-.33V224.75a.33.33,0,0,1,.33-.33h2.11a.33.33,0,0,1,.28.16ZM130,244.83a1.47,1.47,0,0,0,1.27.73h13a.33.33,0,0,1,.25.12.34.34,0,0,1,.07.27,13.57,13.57,0,1,1-7.76-15.11.34.34,0,0,1,.17.2.3.3,0,0,1,0,.26l-7,12.06A1.44,1.44,0,0,0,130,244.83Zm4.39-2.21a.31.31,0,0,1-.28-.16.33.33,0,0,1,0-.33l10.13-17.55a.31.31,0,0,1,.28-.16h2.11a.32.32,0,0,1,.32.33v17.54a.32.32,0,0,1-.32.33Zm21.82-80.18c.56-.62,1.14-1.23,1.73-1.82a60.31,60.31,0,0,1,28.41-16h.08a.33.33,0,0,1,.26.13.32.32,0,0,1,0,.36l-43.43,75.23a.32.32,0,0,1-.29.17h0a.32.32,0,0,1-.27-.23A60.68,60.68,0,0,1,141,193.74h8.56a8,8,0,0,0,8-8v-19A8,8,0,0,0,156.16,162.44Zm.44-5.56,19.62-34a.26.26,0,0,1,.24-.13l.13,0a.38.38,0,0,1,.24.35,24,24,0,0,0,8.37,18.22.35.35,0,0,1,.11.32.33.33,0,0,1-.24.24,63.19,63.19,0,0,0-28,15.36.31.31,0,0,1-.22.09.31.31,0,0,1-.2-.07A.33.33,0,0,1,156.6,156.88ZM200.51,127a.34.34,0,0,1,.28-.17.32.32,0,0,1,.28.17l16.5,28.58a.32.32,0,0,1-.28.48h-33a.33.33,0,0,1-.28-.16.31.31,0,0,1,0-.32ZM192.68,134a13.75,13.75,0,0,1-1.4-1.22,13.59,13.59,0,1,1,19.21,0,14,14,0,0,1-1.53,1.32.35.35,0,0,1-.19.06h-.07a.34.34,0,0,1-.22-.15l-6.41-11.11a1.47,1.47,0,0,0-2.55,0l-6.36,11a.36.36,0,0,1-.22.16h-.06A.34.34,0,0,1,192.68,134Zm6.64,40.18a.33.33,0,0,1-.31.32A32.94,32.94,0,0,0,185.68,178a.4.4,0,0,1-.15,0h-.08a1.32,1.32,0,0,0-.34,0H171.67a.31.31,0,0,1-.28-.16.32.32,0,0,1,0-.33l10.54-18.27a.33.33,0,0,1,.28-.16H199a.33.33,0,0,1,.33.33Zm1.47,6.39A18.76,18.76,0,1,1,182,199.3,18.77,18.77,0,0,1,200.79,180.54Zm-20.83.37a.32.32,0,0,1,.31.22.31.31,0,0,1-.11.36,42.37,42.37,0,0,0-8.79,9.24,41.08,41.08,0,0,0-4.32,7.56,1.43,1.43,0,0,0,0,1,.33.33,0,0,1,0,.29.33.33,0,0,1-.27.14h-7.59a.32.32,0,0,1-.28-.17.31.31,0,0,1,0-.32l10.48-18.16a.32.32,0,0,1,.28-.16ZM166.4,203a.33.33,0,0,1,.33-.33h1.75a.32.32,0,0,1,.28.17,47.81,47.81,0,0,0,6.1,8.48,37.92,37.92,0,0,0,10.45,8.21c.93.48,1.9.93,2.89,1.33a.32.32,0,0,1-.13.62H166.73a.32.32,0,0,1-.33-.32Zm19.49,21.76a.32.32,0,0,1,.32-.33h29.16a.33.33,0,0,1,.33.33v17.54a.33.33,0,0,1-.33.33H186.21a.32.32,0,0,1-.32-.33Zm27.62-3.28a.33.33,0,0,1-.32-.26.32.32,0,0,1,.2-.36c1-.4,2-.85,2.88-1.33A39.78,39.78,0,0,0,230.22,207a46.69,46.69,0,0,0,2.6-4.12.34.34,0,0,1,.29-.17h1.75a.32.32,0,0,1,.32.33v18.16a.32.32,0,0,1-.32.32Zm21.37-21.75a.31.31,0,0,1-.26-.14.33.33,0,0,1-.05-.29,1.44,1.44,0,0,0,0-1,45.08,45.08,0,0,0-7.8-11.9,41.73,41.73,0,0,0-5.28-4.88.32.32,0,0,1-.11-.36.32.32,0,0,1,.3-.22H232a.31.31,0,0,1,.28.16l10.49,18.16a.31.31,0,0,1,0,.32.33.33,0,0,1-.28.17ZM230.2,177.8a.33.33,0,0,1-.28.16H216.33a1.09,1.09,0,0,0-.26,0H216l-.15,0a32.89,32.89,0,0,0-13.29-3.49.32.32,0,0,1-.3-.32V159.37a.32.32,0,0,1,.32-.33h16.78a.32.32,0,0,1,.28.16l10.55,18.27A.33.33,0,0,1,230.2,177.8Zm-83.65,43.67a.34.34,0,0,1-.29-.16.36.36,0,0,1,0-.32l10.49-18.16a.33.33,0,0,1,.28-.17h6.1a.32.32,0,0,1,.32.33v18.16a.32.32,0,0,1-.32.32Zm3.3,3.28a.33.33,0,0,1,.32-.33h32.44a.33.33,0,0,1,.33.33v17.54a.33.33,0,0,1-.33.33H150.17a.33.33,0,0,1-.32-.33Zm5.2,22.8h.09a.33.33,0,0,1,.23.1,63.5,63.5,0,0,0,26.31,16.12.32.32,0,0,1,.23.36.32.32,0,0,1-.32.28H143.86a.33.33,0,0,1-.31-.24.34.34,0,0,1,.14-.37,24,24,0,0,0,11.13-16A.36.36,0,0,1,155.05,247.55Zm2.95-1.43a.31.31,0,0,1-.07-.35.31.31,0,0,1,.3-.21H243a.31.31,0,0,1,.3.21.31.31,0,0,1-.07.35,60.37,60.37,0,0,1-85.19,0Zm61.51,17.64a63.44,63.44,0,0,0,26.36-16.17.29.29,0,0,1,.23-.1h.09a.32.32,0,0,1,.23.25,24,24,0,0,0,11.14,16,.33.33,0,0,1,.15.37.33.33,0,0,1-.32.24H219.6a.32.32,0,0,1-.32-.28A.33.33,0,0,1,219.51,263.76ZM219,242.62a.32.32,0,0,1-.32-.33V224.75a.32.32,0,0,1,.32-.33h32.44a.32.32,0,0,1,.32.33v17.54a.32.32,0,0,1-.32.33Zm19.49-21.15a.32.32,0,0,1-.33-.32V203a.33.33,0,0,1,.33-.33h6.09a.34.34,0,0,1,.29.17L255.32,221a.31.31,0,0,1,0,.32.33.33,0,0,1-.28.16Zm-22.13-79.68a.35.35,0,0,1,.11-.32A23.7,23.7,0,0,0,224.93,124a.33.33,0,0,1,.25-.3h.08a.33.33,0,0,1,.28.16l19.05,33a.33.33,0,0,1-.08.42.31.31,0,0,1-.2.07.31.31,0,0,1-.22-.09A63.36,63.36,0,0,0,216.57,142,.33.33,0,0,1,216.33,141.79Zm-28-39.85,12-20.77a.32.32,0,0,1,.29-.17.32.32,0,0,1,.28.17l11.69,20.25a.32.32,0,0,1,0,.39.33.33,0,0,1-.24.1.28.28,0,0,1-.15,0,24.15,24.15,0,0,0-11.25-2.79,23.85,23.85,0,0,0-12.12,3.3.37.37,0,0,1-.17.05.34.34,0,0,1-.23-.1A.33.33,0,0,1,188.32,101.94ZM186,108.21a21.11,21.11,0,1,1,26.76,32.4.29.29,0,0,1-.18,0h-.07a.31.31,0,0,1-.21-.16l-2-3.41a.33.33,0,0,1,.09-.43,16.52,16.52,0,1,0-19.12-.08.33.33,0,0,1,.09.42l-2,3.41a.34.34,0,0,1-.21.16h-.07a.41.41,0,0,1-.19,0A21.1,21.1,0,0,1,186,108.21Zm-52.6,27.87a94.77,94.77,0,0,1,45.87-25.42h.08a.33.33,0,0,1,.26.13.34.34,0,0,1,0,.36l-27.78,48.11a7.78,7.78,0,0,0-2.28-.38h-33A95.26,95.26,0,0,1,133.36,136.08ZM73.2,191.45a5.67,5.67,0,0,1-5.66-5.66v-19a5.67,5.67,0,0,1,5.66-5.66h76.33a5.67,5.67,0,0,1,5.66,5.66v19a5.67,5.67,0,0,1-5.66,5.66Zm66.33,28.67a.34.34,0,0,1-.09.33.35.35,0,0,1-.22.08h-.11a23.94,23.94,0,0,0-19.52,1.67.3.3,0,0,1-.16.05.34.34,0,0,1-.23-.1.34.34,0,0,1,0-.39l16.17-28H138a64,64,0,0,0-.75,9.58A63.18,63.18,0,0,0,139.53,220.12Zm-34-16.8a95.13,95.13,0,0,1,.48-9.58H131.9l-21.64,37.48a.32.32,0,0,1-.28.16h0a.34.34,0,0,1-.27-.23A95,95,0,0,1,105.51,203.32Zm13.08,61.08H95.09a.31.31,0,0,1-.28-.16.33.33,0,0,1,0-.33l11.75-20.36a.33.33,0,0,1,.28-.16h.08a.34.34,0,0,1,.25.31,24.27,24.27,0,0,0,11.59,20.08.34.34,0,0,1,.14.37A.32.32,0,0,1,118.59,264.4Zm-2.3-6.23a21.11,21.11,0,0,1,14.93-36,21.25,21.25,0,0,1,9.33,2.17.29.29,0,0,1,.16.2.28.28,0,0,1,0,.25l-2,3.42a.32.32,0,0,1-.28.17.23.23,0,0,1-.14,0,16.53,16.53,0,1,0,9.25,17.54.32.32,0,0,1,.32-.28h4a.33.33,0,0,1,.33.37,21.11,21.11,0,0,1-35.87,12.24ZM263.2,290.29v16.33a6.75,6.75,0,0,1-6.75,6.75H144.74a6.75,6.75,0,0,1-6.75-6.75V290.29a6.75,6.75,0,0,1,6.75-6.75H256.45A6.75,6.75,0,0,1,263.2,290.29Zm7.16-22.38c-.87.95-1.71,1.82-2.53,2.64a96.15,96.15,0,0,1-12.12,10.25H145.49a95.53,95.53,0,0,1-12.13-10.25c-.82-.81-1.65-1.69-2.53-2.64a.34.34,0,0,1-.06-.36.34.34,0,0,1,.3-.19H270.12a.34.34,0,0,1,.3.19A.34.34,0,0,1,270.36,267.91Zm-.33-3.55a21.1,21.1,0,0,1-20.93-18.43.33.33,0,0,1,.08-.26.36.36,0,0,1,.24-.11h4a.33.33,0,0,1,.32.28,16.54,16.54,0,1,0,9.5-17.65.28.28,0,0,1-.13,0,.33.33,0,0,1-.28-.16l-2-3.42a.39.39,0,0,1,0-.26.34.34,0,0,1,.17-.2A21.11,21.11,0,1,1,270,264.36Zm-6.85-70.62h2.69L282,221.69a.33.33,0,0,1-.05.39.3.3,0,0,1-.23.1.42.42,0,0,1-.16,0,24,24,0,0,0-19.49-1.6H262a.35.35,0,0,1-.22-.08.32.32,0,0,1-.09-.33,63.33,63.33,0,0,0,2.27-16.82A64,64,0,0,0,263.18,193.74Zm30.91,50.07a.31.31,0,0,1,.24-.3h.08a.33.33,0,0,1,.28.16l11.69,20.25a.32.32,0,0,1,0,.33.31.31,0,0,1-.28.16H282.66a.33.33,0,0,1-.31-.24.34.34,0,0,1,.14-.37A24.29,24.29,0,0,0,294.09,243.81Zm-2.57-12.66a.34.34,0,0,1-.27.23h0a.33.33,0,0,1-.28-.16l-21.64-37.48H295.2a95.34,95.34,0,0,1-3.68,37.41Zm41.69-45.36a5.67,5.67,0,0,1-5.66,5.66H251.22a5.67,5.67,0,0,1-5.66-5.66v-19a5.67,5.67,0,0,1,5.66-5.66h76.33a5.67,5.67,0,0,1,5.66,5.66Z"/></svg>